<svg width="33" height="27" viewBox="0 0 33 27" fill="none" xmlns="http://www.w3.org/2000/svg">
<path d="M8.50002 26.0599H8.39002C8.33002 26.0399 8.28002 26.0099 8.22002 25.9899C5.36002 25.0799 2.71002 23.7399 0.29002 21.9699C0.18002 21.8899 0.13002 21.7999 0.12002 21.6699C0.10002 21.2399 0.0600197 20.8099 0.0400197 20.3799C-0.0799803 17.9199 0.10002 15.4899 0.62002 13.0799C1.41002 9.47994 2.92002 6.17994 4.96002 3.11994C5.00002 3.05994 5.07002 2.99994 5.14002 2.96994C7.23002 2.01994 9.41002 1.33994 11.68 0.939941C11.81 0.919941 11.88 0.949941 11.93 1.05994C12.16 1.52994 12.41 1.98994 12.63 2.46994C12.71 2.64994 12.8 2.68994 12.98 2.65994C14.2 2.46994 15.43 2.39994 16.67 2.40994C17.82 2.40994 18.96 2.49994 20.09 2.66994C20.24 2.68994 20.3 2.63994 20.36 2.50994C20.59 2.01994 20.83 1.53994 21.06 1.05994C21.11 0.949941 21.17 0.909941 21.31 0.939941C23.32 1.28994 25.26 1.86994 27.14 2.65994C27.6934 2.89327 28.13 3.26327 28.45 3.76994C30.27 6.58994 31.6 9.61994 32.34 12.8999C32.7 14.5199 32.92 16.1499 32.98 17.8099C33.03 19.0999 32.99 20.3899 32.87 21.6799C32.86 21.7999 32.83 21.8799 32.72 21.9599C30.67 23.4599 28.46 24.6499 26.08 25.5399C25.58 25.7299 25.07 25.8899 24.56 26.0699H24.49C24.45 26.0199 24.4 25.9699 24.36 25.9099C23.85 25.0799 23.33 24.2499 22.83 23.4199C22.69 23.1899 22.71 23.1899 22.95 23.0799C23.73 22.7099 24.51 22.3399 25.29 21.9699C25.5 21.8699 25.5 21.8099 25.31 21.6699C25.22 21.5999 25.12 21.5399 25.04 21.4499C24.91 21.3099 24.79 21.3199 24.62 21.3999C21.36 22.8699 17.95 23.4499 14.39 23.0599C12.35 22.8399 10.39 22.2999 8.52002 21.4599C8.26002 21.3399 8.05002 21.2999 7.85002 21.5399C7.81002 21.5899 7.74002 21.6299 7.68002 21.6699C7.49002 21.8099 7.49002 21.8699 7.70002 21.9799C8.48002 22.3599 9.27002 22.7299 10.05 23.0999C10.25 23.1999 10.27 23.1999 10.16 23.4099C9.68002 24.3499 9.12002 25.2299 8.50002 26.0799V26.0599ZM24.96 14.9299C24.96 13.9699 24.76 13.2899 24.33 12.6699C23.27 11.1799 21.26 10.9899 20.01 12.2799C18.69 13.6299 18.71 15.9499 20.07 17.2599C21.18 18.3399 22.84 18.3399 23.95 17.2599C24.66 16.5699 24.96 15.7099 24.97 14.9299H24.96ZM13.99 14.8199C13.99 13.9899 13.8 13.3099 13.38 12.7099C12.33 11.1899 10.34 10.9899 9.05002 12.2699C7.71002 13.5999 7.73002 15.9699 9.10002 17.2799C10.3 18.4199 12.08 18.3299 13.16 17.0699C13.73 16.3999 13.99 15.6099 13.99 14.8299V14.8199Z" fill="#B3B3B3"/>
</svg>
