<svg width="33" height="33" viewBox="0 0 33 33" fill="none" xmlns="http://www.w3.org/2000/svg">
<g clip-path="url(#clip0_804_81)">
<path d="M0 16.4399C0.11 16.4599 0.12 16.3999 0.12 16.3099C0.12 15.8299 0.12 15.3399 0.12 14.8599C0.12 14.7699 0.12 14.6799 0.21 14.6199C0.23 14.6099 0.24 14.5499 0.24 14.5199C0.24 14.3799 0.24 14.2399 0.24 14.0999C0.24 13.9999 0.2 13.8899 0.33 13.8299C0.35 13.8299 0.35 13.7699 0.35 13.7399C0.35 13.6199 0.35 13.4999 0.35 13.3699C0.35 13.2899 0.3 13.1799 0.44 13.1599C0.45 13.1599 0.44 13.0799 0.46 13.0399C0.49 12.9199 0.38 12.7699 0.56 12.6899C0.58 12.6899 0.56 12.5799 0.57 12.5299C0.57 12.4299 0.53 12.3099 0.67 12.2499C0.69 12.2499 0.68 12.1899 0.69 12.1599C0.71 12.0799 0.64 11.9599 0.79 11.9199C0.8 11.9199 0.81 11.8599 0.8 11.8299C0.75 11.6099 0.9 11.4499 0.98 11.2699C1 11.2299 1.01 11.1799 1.03 11.1299C1.06 11.0599 1.09 10.9899 1.12 10.9099C1.12 10.8999 1.14 10.8799 1.14 10.8699C1.12 10.6499 1.31 10.4999 1.35 10.3199C1.41 10.0099 1.58 9.75991 1.71 9.47991C1.87 9.12991 2.04 8.78991 2.22 8.45991C2.35 8.21991 2.53 7.99991 2.68 7.75991C2.86 7.47991 3.03 7.19991 3.21 6.92991C3.21 6.91991 3.22 6.90991 3.23 6.89991C3.44 6.64991 3.66 6.40991 3.85 6.14991C4.42 5.35991 5.19 4.76991 5.84 4.05991C6.1 3.93991 6.26 3.68991 6.49 3.54991C6.65 3.44991 6.77 3.32991 6.91 3.21991C7.06 3.10991 7.24 3.02991 7.4 2.92991C7.43 2.90991 7.46 2.87991 7.49 2.85991C7.57 2.80991 7.65 2.75991 7.73 2.70991C7.76 2.68991 7.79 2.65991 7.83 2.62991C7.91 2.57991 7.99 2.52991 8.07 2.47991C8.09 2.47991 8.11 2.45991 8.12 2.44991C8.29 2.22991 8.56 2.17991 8.78 2.04991C9.03 1.90991 9.3 1.78991 9.56 1.66991C9.78 1.55991 10 1.44991 10.22 1.34991C10.33 1.29991 10.45 1.25991 10.59 1.19991C10.64 1.03991 10.81 1.17991 10.92 1.11991C10.97 0.929909 11.15 1.06991 11.24 0.979909C11.3 0.959909 11.35 0.929909 11.41 0.909909C11.49 0.889909 11.6 0.959909 11.64 0.819909C11.64 0.799909 11.77 0.799909 11.84 0.799909C11.89 0.799909 11.95 0.819909 11.96 0.729909C11.96 0.709909 12.02 0.689909 12.05 0.689909C12.12 0.689909 12.19 0.689909 12.26 0.689909C12.34 0.689909 12.42 0.689909 12.41 0.579909H12.82C12.94 0.359909 13.14 0.539909 13.26 0.429909C13.31 0.409909 13.37 0.369909 13.42 0.359909C13.52 0.349909 13.63 0.359909 13.73 0.359909C13.79 0.359909 13.84 0.319909 13.89 0.299909C13.89 0.289909 13.89 0.269909 13.88 0.259909H14.62C14.62 0.259909 14.62 0.229909 14.61 0.219909C14.66 0.199909 14.72 0.149909 14.77 0.149909C15.32 0.149909 15.88 0.149909 16.43 0.149909C16.48 0.149909 16.53 0.119909 16.57 0.0799091C16.64 0.0199091 16.7 0.0299091 16.77 0.0799091C16.82 0.109909 16.88 0.149909 16.93 0.149909C17.38 0.149909 17.84 0.149909 18.29 0.149909C18.36 0.149909 18.46 0.109909 18.48 0.239909C18.48 0.249909 18.55 0.259909 18.58 0.259909C18.73 0.259909 18.87 0.259909 19.02 0.259909C19.05 0.259909 19.11 0.259909 19.11 0.259909C19.21 0.469909 19.39 0.329909 19.52 0.359909C19.58 0.379909 19.65 0.359909 19.72 0.359909C19.74 0.359909 19.78 0.359909 19.79 0.359909C19.88 0.569909 20.07 0.419909 20.2 0.459909C20.27 0.479909 20.38 0.409909 20.39 0.549909C20.39 0.549909 20.44 0.569909 20.47 0.569909C20.55 0.569909 20.64 0.569909 20.72 0.569909C20.75 0.569909 20.81 0.569909 20.81 0.589909C20.85 0.739909 20.96 0.659909 21.05 0.689909C21.09 0.699909 21.13 0.739909 21.18 0.759909C21.22 0.779909 21.26 0.789909 21.3 0.799909C21.38 0.819909 21.49 0.749909 21.53 0.889909C21.53 0.909909 21.62 0.899909 21.67 0.909909C21.74 0.909909 21.83 0.879909 21.86 0.999909C21.86 1.01991 21.96 1.01991 22.01 1.01991C22.08 1.01991 22.17 0.989909 22.19 1.10991C22.19 1.11991 22.22 1.13991 22.23 1.12991C22.45 1.10991 22.61 1.23991 22.78 1.33991C22.78 1.33991 22.8 1.34991 22.81 1.34991C23.17 1.39991 23.45 1.61991 23.76 1.75991C24.04 1.87991 24.31 2.01991 24.58 2.15991C24.73 2.23991 24.86 2.33991 25 2.43991C25.23 2.58991 25.45 2.73991 25.68 2.88991C25.89 3.02991 26.12 3.15991 26.32 3.31991C26.58 3.50991 26.82 3.73991 27.07 3.92991C27.73 4.41991 28.25 5.05991 28.84 5.61991C28.97 5.73991 29.06 5.90991 29.17 6.05991C29.25 6.14991 29.35 6.21991 29.43 6.31991C29.58 6.51991 29.71 6.72991 29.84 6.92991C29.84 6.92991 29.84 6.94991 29.86 6.94991C29.98 7.10991 30.12 7.26991 30.23 7.44991C30.37 7.65991 30.48 7.87991 30.61 8.08991C30.64 8.14991 30.69 8.19991 30.72 8.25991C30.84 8.46991 30.95 8.66991 31.06 8.87991C31.2 9.15991 31.35 9.42991 31.48 9.71991C31.54 9.85991 31.66 9.97991 31.65 10.1599C31.65 10.2599 31.75 10.3699 31.81 10.4699C31.82 10.4999 31.87 10.5199 31.86 10.5399C31.82 10.7099 31.91 10.8499 31.99 10.9599C32.1 11.1099 32.08 11.2499 32.09 11.3999C32.09 11.4199 32.09 11.4599 32.1 11.4599C32.25 11.4899 32.19 11.6099 32.2 11.6999C32.2 11.8499 32.2 12.0099 32.2 12.1599C32.2 12.2399 32.25 12.3599 32.11 12.3899C32.11 12.3899 32.09 12.4099 32.1 12.4299C32.13 12.6899 31.93 12.8599 31.87 13.0899C31.87 13.0899 31.87 13.1099 31.86 13.1099C31.72 13.2999 31.56 13.4699 31.43 13.6699C31.16 14.0699 30.76 14.3699 30.49 14.7499C30.3 15.0099 30.08 15.2299 29.86 15.4499C29.74 15.5799 29.58 15.6699 29.45 15.7799C29.36 15.8499 29.28 15.9299 29.2 16.0099C28.91 16.2899 28.65 16.6099 28.34 16.8599C28.08 17.0699 27.83 17.2999 27.58 17.5099C27.3 17.7399 27 17.9499 26.7 18.1699C26.52 18.2999 26.34 18.4299 26.15 18.5599C26.15 18.5099 26.15 18.4599 26.15 18.4099C26.15 15.1099 26.15 11.8199 26.15 8.51991C26.15 8.43991 26.18 8.34991 26.07 8.29991C26.05 8.28991 26.04 8.20991 26.04 8.16991C26.05 8.05991 26.01 7.99991 25.93 7.92991C25.81 7.81991 25.71 7.69991 25.59 7.58991C25.41 7.40991 25.2 7.30991 24.93 7.30991C23.96 7.31991 22.99 7.30991 22.02 7.30991C21.81 7.30991 21.65 7.39991 21.51 7.50991C21.38 7.60991 21.26 7.71991 21.16 7.85991C21.07 7.98991 20.97 8.12991 20.97 8.30991C20.97 8.34991 20.92 8.39991 20.9 8.43991C20.89 8.46991 20.87 8.48991 20.86 8.51991C20.86 8.55991 20.86 8.59991 20.86 8.64991C20.86 12.7699 20.86 16.8899 20.86 20.9999C20.86 21.3199 20.66 21.5999 20.37 21.7299C20.18 21.8099 20.01 21.9299 19.83 22.0099C19.68 22.0699 19.56 22.1999 19.37 22.1799C19.32 22.1799 19.25 22.2399 19.17 22.2899V22.1099C19.17 18.8599 19.17 15.5999 19.17 12.3499C19.17 12.2699 19.2 12.1799 19.09 12.1299C19.06 12.1199 19.06 12.0199 19.06 11.9599C19.1 11.5599 18.87 11.3099 18.6 11.0799C18.51 11.0099 18.38 10.9899 18.29 10.9199C18.08 10.7599 17.84 10.8099 17.61 10.8099C16.75 10.8099 15.89 10.8099 15.04 10.8099C14.84 10.8099 14.68 10.8999 14.54 11.0099C14.36 11.1499 14.21 11.3299 14.05 11.4899C14.03 11.5099 14.01 11.5499 14.01 11.5899C14 11.6799 14.04 11.7999 13.91 11.8499C13.89 11.8499 13.9 11.9399 13.9 11.9799C13.9 13.1899 13.9 14.3999 13.9 15.6099C13.9 18.1399 13.9 20.6799 13.9 23.2099C13.9 23.2899 13.95 23.4099 13.81 23.4399C13.8 23.4399 13.79 23.4999 13.8 23.5299C13.81 23.6499 13.77 23.7299 13.68 23.8099C13.56 23.9199 13.46 24.0499 13.33 24.1499C13.25 24.2099 13.13 24.2099 13.03 24.2399C12.93 24.4399 12.72 24.2599 12.59 24.3399C12.46 24.5299 12.28 24.3999 12.11 24.4499C12.11 24.3699 12.11 24.3099 12.11 24.2499C12.11 21.3099 12.11 18.3699 12.11 15.4299C12.11 15.2499 12.03 15.0999 11.94 14.9799C11.74 14.7299 11.49 14.5299 11.19 14.3999C11.02 14.3199 10.87 14.3099 10.7 14.3099C9.83 14.3099 8.96 14.3099 8.08 14.3099C7.87 14.3099 7.72 14.4099 7.57 14.5099C7.49 14.5599 7.41 14.5999 7.34 14.6599C7.28 14.7099 7.22 14.7599 7.18 14.8299C7.1 14.9599 7.03 15.0999 6.96 15.2499C6.94 15.2999 6.94 15.3599 6.94 15.4099C6.94 18.3599 6.94 21.3099 6.94 24.2599C6.94 24.3699 7.01 24.5099 6.84 24.5899C6.81 24.5999 6.82 24.7199 6.83 24.7899C6.83 24.8999 6.81 24.9699 6.72 25.0499C6.6 25.1499 6.49 25.2699 6.38 25.3899C6.26 25.5199 6.14 25.6299 5.94 25.5699C5.94 25.5899 5.95 25.5999 5.96 25.6199C5.9 25.6399 5.85 25.6899 5.79 25.6899C5.5 25.6899 5.21 25.6899 4.92 25.6899C4.86 25.6899 4.79 25.6699 4.79 25.7699C4.79 25.7799 4.74 25.7999 4.71 25.8099C4.4 25.8099 4.08 25.8099 3.77 25.8099C3.73 25.8099 3.69 25.7599 3.61 25.7099C3.32 25.6699 3.03 25.5199 2.78 25.2999C2.71 25.2399 2.66 25.1699 2.59 25.1099C2.34 24.9099 2.24 24.6099 2.1 24.3399C2.02 24.1899 1.98 23.9999 1.83 23.8899C1.8 23.8699 1.77 23.8299 1.77 23.7999C1.77 23.5199 1.56 23.3199 1.47 23.0799C1.41 22.9299 1.33 22.7899 1.29 22.6199C1.26 22.4899 1.23 22.3399 1.16 22.2199C1.06 22.0399 0.94 21.8699 0.97 21.6399C0.97 21.5999 0.92 21.5599 0.91 21.5199C0.89 21.4699 0.88 21.4099 0.87 21.3499C0.86 21.2799 0.9 21.2099 0.79 21.1699C0.76 21.1599 0.77 21.0399 0.75 20.9799C0.74 20.9399 0.71 20.8999 0.69 20.8499C0.67 20.8199 0.65 20.7899 0.65 20.7499C0.65 20.6699 0.65 20.5899 0.65 20.5099C0.65 20.4799 0.65 20.4399 0.65 20.4299C0.45 20.3299 0.58 20.1499 0.55 20.0099C0.53 19.9399 0.58 19.8499 0.47 19.8199C0.45 19.8199 0.44 19.7499 0.44 19.7199C0.44 19.6299 0.44 19.5399 0.44 19.4499C0.44 19.3799 0.47 19.2999 0.36 19.2499C0.33 19.2399 0.33 19.1599 0.33 19.1099C0.33 18.9099 0.33 18.7099 0.33 18.5099C0.33 18.4799 0.33 18.4299 0.31 18.4199C0.15 18.3299 0.21 18.1799 0.21 18.0499C0.21 17.5699 0.21 17.0799 0.21 16.5899C0.17 16.5899 0.13 16.5899 0.1 16.5899C0.1 16.5499 0.1 16.5099 0.1 16.4799L0 16.4399Z" fill="#B3B3B3"/>
<path d="M7.01997 29.95C7.08997 29.92 7.15997 29.89 7.22997 29.87C7.27997 29.85 7.33997 29.84 7.38997 29.83C7.51997 29.83 7.63997 29.83 7.76997 29.82C7.80997 29.82 7.83997 29.77 7.87997 29.75C7.90997 29.73 7.93997 29.72 7.96997 29.72C8.10997 29.72 8.23997 29.72 8.37997 29.71C8.44997 29.71 8.54997 29.76 8.55997 29.62C8.55997 29.62 8.61997 29.61 8.64997 29.61C8.77997 29.61 8.90997 29.61 9.03997 29.6C9.10997 29.6 9.21997 29.65 9.22997 29.51C9.22997 29.51 9.27997 29.5 9.30997 29.5C9.41997 29.5 9.52997 29.5 9.62997 29.5C9.68997 29.5 9.77997 29.54 9.78997 29.42C9.78997 29.42 9.83997 29.4 9.85997 29.4C9.93997 29.4 10.03 29.4 10.11 29.4C10.14 29.4 10.18 29.4 10.19 29.4C10.3 29.21 10.48 29.34 10.62 29.3C10.68 29.28 10.79 29.34 10.8 29.21C10.8 29.21 10.85 29.2 10.88 29.19C10.96 29.19 11.05 29.19 11.13 29.19C11.16 29.19 11.21 29.19 11.21 29.19C11.28 29.01 11.43 29.12 11.54 29.09C11.6 29.07 11.69 29.12 11.7 29C11.7 29 11.76 28.98 11.79 28.98C11.87 28.98 11.96 28.98 12.04 28.98C12.08 28.98 12.11 28.94 12.14 28.92C12.17 28.9 12.2 28.88 12.23 28.88C12.3 28.88 12.37 28.88 12.44 28.88C12.5 28.88 12.59 28.91 12.6 28.8C12.6 28.79 12.65 28.78 12.68 28.78C12.76 28.78 12.85 28.78 12.93 28.78C12.96 28.78 13.01 28.78 13.01 28.77C13.05 28.62 13.17 28.69 13.26 28.67C13.29 28.67 13.33 28.67 13.34 28.66C13.43 28.5 13.59 28.59 13.71 28.55C13.75 28.54 13.78 28.5 13.82 28.49C13.87 28.47 13.92 28.46 13.97 28.45C14.04 28.43 14.15 28.5 14.17 28.36C14.17 28.35 14.21 28.34 14.23 28.34C14.34 28.33 14.45 28.36 14.54 28.24C14.58 28.19 14.73 28.24 14.82 28.22C14.86 28.22 14.9 28.17 14.94 28.15C14.98 28.13 15.03 28.12 15.08 28.11C15.16 28.1 15.26 28.16 15.29 28.02C15.29 28.01 15.34 28 15.37 28C15.56 28.03 15.69 27.89 15.84 27.83C15.9 27.81 15.95 27.79 16.01 27.78C16.08 27.77 16.16 27.79 16.2 27.69C16.2 27.67 16.25 27.67 16.28 27.66C16.38 27.65 16.5 27.7 16.55 27.56C16.55 27.54 16.61 27.56 16.64 27.55C16.73 27.54 16.83 27.59 16.87 27.46C16.87 27.46 16.9 27.44 16.92 27.44C17.13 27.46 17.28 27.33 17.44 27.25C17.46 27.25 17.47 27.23 17.49 27.23C17.61 27.19 17.73 27.16 17.85 27.11C18.16 26.98 18.47 26.81 18.79 26.7C19.01 26.62 19.22 26.52 19.43 26.44C20.38 26.06 21.26 25.57 22.17 25.11C22.49 24.95 22.79 24.78 23.1 24.6C23.27 24.5 23.43 24.36 23.6 24.25C23.66 24.21 23.74 24.18 23.81 24.14C24.05 23.98 24.29 23.82 24.53 23.67C24.63 23.61 24.74 23.56 24.84 23.51C24.86 23.5 24.89 23.49 24.9 23.48C25.09 23.34 25.27 23.19 25.46 23.06C25.64 22.94 25.82 22.83 26 22.71C26.09 22.65 26.16 22.56 26.25 22.5C26.47 22.34 26.7 22.18 26.92 22.02C26.98 21.98 27.02 21.93 27.08 21.88C27.39 21.61 27.68 21.31 28.02 21.08C28.37 20.85 28.63 20.54 28.93 20.26C29.36 19.86 29.83 19.49 30.21 19.05C30.56 18.65 30.95 18.29 31.28 17.89C31.57 17.55 31.83 17.19 32.11 16.84C32.33 16.55 32.55 16.25 32.77 15.96C32.8 15.92 32.8 15.87 32.83 15.83C32.85 15.79 32.88 15.74 32.91 15.7C32.92 15.7 32.93 15.7 32.95 15.71C32.95 15.82 32.97 15.92 32.97 16.03C32.97 16.74 32.96 17.45 32.95 18.15C32.95 18.21 32.91 18.27 32.9 18.33C32.89 18.37 32.87 18.41 32.86 18.45C32.86 18.59 32.86 18.72 32.84 18.86C32.83 18.96 32.79 19.05 32.77 19.14C32.76 19.2 32.75 19.27 32.74 19.33C32.72 19.5 32.78 19.69 32.65 19.84C32.63 19.87 32.65 19.92 32.63 19.96C32.61 20.07 32.63 20.17 32.54 20.27C32.49 20.32 32.53 20.44 32.51 20.53C32.49 20.63 32.45 20.73 32.42 20.83C32.41 20.87 32.41 20.91 32.39 20.95C32.37 21.02 32.34 21.09 32.31 21.15C32.3 21.18 32.28 21.22 32.28 21.26C32.29 21.47 32.2 21.65 32.1 21.82C32.07 21.87 32.07 21.94 32.05 21.99C32.03 22.05 32 22.1 31.97 22.15C31.97 22.16 31.95 22.17 31.95 22.18C31.91 22.34 31.87 22.5 31.82 22.65C31.76 22.81 31.69 22.97 31.61 23.12C31.42 23.54 31.24 23.96 31.03 24.37C30.89 24.64 30.71 24.89 30.55 25.15C30.45 25.31 30.35 25.47 30.25 25.63C30.16 25.76 30.08 25.9 29.99 26.02C29.85 26.21 29.68 26.39 29.55 26.6C29.37 26.91 29.07 27.12 28.86 27.41C28.47 27.96 27.94 28.38 27.48 28.86C27.25 29.1 26.98 29.3 26.72 29.5C26.47 29.7 26.2 29.89 25.94 30.07C25.71 30.23 25.48 30.39 25.24 30.54C25.07 30.64 24.89 30.71 24.71 30.8C24.68 30.82 24.64 30.83 24.61 30.86C24.43 31.06 24.17 31.11 23.95 31.24C23.68 31.39 23.4 31.52 23.12 31.65C22.98 31.72 22.83 31.76 22.68 31.82C22.59 31.86 22.5 31.9 22.4 31.94C22.25 32.01 22.11 32.08 21.96 32.1399C21.92 32.16 21.87 32.14 21.84 32.15C21.78 32.17 21.72 32.1999 21.66 32.2299C21.63 32.24 21.6 32.2599 21.57 32.2599C21.47 32.2599 21.36 32.24 21.3 32.36C21.3 32.38 21.24 32.3699 21.21 32.3699C21.12 32.3699 21.03 32.3499 20.98 32.4599C20.98 32.4799 20.93 32.4799 20.9 32.4799C20.65 32.52 20.38 32.52 20.16 32.63C19.98 32.72 19.79 32.66 19.64 32.7299C19.45 32.83 19.22 32.7699 19.05 32.8499C18.75 32.9999 18.45 32.89 18.16 32.95C17.2 33.15 16.23 33 15.27 33.04C15.19 33.04 15.1 33 15.02 32.9799C14.98 32.9699 14.93 32.96 14.88 32.95C14.69 32.95 14.51 32.94 14.32 32.93C14.21 32.93 14.1 32.92 13.99 32.86C13.87 32.8 13.71 32.83 13.56 32.81C13.48 32.8 13.41 32.76 13.34 32.74C13.25 32.72 13.16 32.72 13.08 32.7C13.02 32.69 12.96 32.65 12.9 32.63C12.88 32.63 12.87 32.5999 12.85 32.5999C12.61 32.6499 12.42 32.46 12.19 32.47C12.13 32.47 12.06 32.42 11.99 32.4C11.91 32.38 11.82 32.38 11.73 32.36C11.67 32.35 11.61 32.32 11.55 32.29C11.54 32.29 11.53 32.26 11.52 32.27C11.34 32.31 11.21 32.15 11.04 32.13C10.95 32.12 10.86 32.06 10.77 32.02C10.5 31.91 10.23 31.79 9.95997 31.68C9.84997 31.64 9.72997 31.61 9.61997 31.56C9.55997 31.53 9.50997 31.47 9.45997 31.44C9.39997 31.4 9.33997 31.35 9.27997 31.35C9.15997 31.35 9.08997 31.3 9.00997 31.22C8.95997 31.17 8.86997 31.15 8.79997 31.12C8.66997 31.06 8.53997 31.02 8.41997 30.95C8.27997 30.87 8.14997 30.79 8.01997 30.7C7.91997 30.63 7.81997 30.56 7.71997 30.5C7.50997 30.36 7.30997 30.23 7.09997 30.1C7.04997 30.07 7.00997 30.03 6.96997 30.01L7.01997 29.95Z" fill="#B3B3B3"/>
</g>
<defs>
<clipPath id="clip0_804_81">
<rect width="33" height="33" fill="white"/>
</clipPath>
</defs>
</svg>
