<svg width="33" height="27" viewBox="0 0 33 27" fill="none" xmlns="http://www.w3.org/2000/svg">
<path d="M11.47 26.9599H9.40001C9.31001 26.9399 9.21001 26.9199 9.12001 26.9099C6.26001 26.7399 3.57001 25.9599 1.05001 24.5899C0.70001 24.3999 0.36001 24.1799 0.0100098 23.9699C1.79001 24.0799 3.52001 23.9599 5.22001 23.4799C6.91001 22.9999 8.46001 22.2399 9.90001 21.1199C6.80001 20.8399 4.74001 19.2699 3.59001 16.3799C4.63001 16.4999 5.58001 16.5299 6.58001 16.2499C2.51001 15.2299 1.06001 11.5599 1.28001 9.53994C2.19001 9.98994 3.14001 10.3099 4.22001 10.3199C0.650009 7.72994 0.80001 3.47994 2.21001 1.31994C5.88001 5.62994 10.51 8.00994 16.17 8.38994C16.13 7.91994 16.07 7.49994 16.07 7.07994C16.07 6.65994 16.08 6.23994 16.14 5.81994C16.57 2.67994 19.26 0.219939 22.44 0.0499393C24.41 -0.0500607 26.13 0.589939 27.57 1.93994C27.67 2.03994 27.86 2.15994 27.97 2.12994C28.75 1.91994 29.53 1.69994 30.28 1.42994C30.89 1.20994 31.46 0.889939 32.09 0.589939C31.58 2.14994 30.61 3.30994 29.31 4.21994C30.59 4.09994 31.79 3.72994 33.02 3.22994C32.94 3.35994 32.9 3.41994 32.85 3.47994C32.03 4.63994 31.07 5.66994 29.92 6.50994C29.7 6.66994 29.64 6.83994 29.65 7.10994C29.71 8.44994 29.59 9.77994 29.33 11.0999C28.58 14.9199 26.91 18.2999 24.23 21.1299C21.2 24.3299 17.48 26.1699 13.12 26.7499C12.58 26.8199 12.03 26.8799 11.49 26.9399L11.47 26.9599Z" fill="#B3B3B3"/>
</svg>
