<svg width="33" height="33" viewBox="0 0 33 33" fill="none" xmlns="http://www.w3.org/2000/svg">
<path d="M33 15.47V17.53C32.98 17.61 32.96 17.7 32.95 17.78C32.84 18.54 32.77 19.31 32.61 20.07C31.28 26.46 25.83 31.68 19.41 32.74C18.79 32.84 18.16 32.91 17.54 33H15.48C15.08 32.95 14.67 32.91 14.27 32.85C10.99 32.38 8.08 31.07 5.6 28.87C2.73 26.32 0.94 23.15 0.26 19.38C0.15 18.76 0.08 18.15 0 17.53C0 16.84 0 16.16 0 15.47C0.03 15.26 0.06 15.05 0.08 14.84C0.46 11.34 1.78 8.25 4.12 5.62C6.68 2.72 9.87 0.91 13.69 0.25C14.28 0.15 14.88 0.08 15.47 0C16.16 0 16.85 0 17.53 0C17.61 0.02 17.69 0.04 17.78 0.05C18.8 0.23 19.85 0.33 20.85 0.59C26.95 2.19 31.73 7.45 32.75 13.65C32.85 14.25 32.92 14.86 33 15.46V15.47ZM16.07 21.16C15.31 21.16 14.58 21.16 13.85 21.16C12.73 21.16 12.08 20.53 12.02 19.4C12.02 19.22 11.96 19.12 11.76 19.12C10.23 19.12 8.71 19.12 7.18 19.12C6.98 19.12 6.9 19.2 6.92 19.39C6.96 19.77 6.96 20.17 7.05 20.54C7.63 23.15 9.82 24.89 12.54 24.9C15.24 24.9 17.93 24.87 20.63 24.92C21.79 24.94 22.68 24.52 23.35 23.61C23.89 22.88 24.39 22.11 24.87 21.34C25.28 20.68 25.79 20.12 26.51 19.85C27.2 19.59 27.35 19.16 27.27 18.51C27.22 18.15 27.23 18.12 26.87 18.22C25.64 18.57 24.42 18.95 23.19 19.27C22.43 19.46 21.76 19.74 21.27 20.38C21.16 20.53 21 20.66 20.84 20.77C20.62 20.91 20.37 21.1 20.13 21.11C19.42 21.16 18.7 21.13 17.98 21.13V19.32C18.4 19.32 18.8 19.33 19.2 19.32C19.34 19.32 19.5 19.27 19.6 19.18C20.39 18.46 21.09 17.66 21.64 16.74C22.29 15.64 22.36 14.52 21.82 13.36C21.4 12.46 20.82 11.68 20.13 10.98C19.55 10.39 18.94 9.82 18.29 9.32C18.01 9.11 17.94 8.93 17.95 8.63C17.96 8.23 17.96 7.83 17.93 7.44C17.9 7.05 17.63 6.74 17.28 6.64C16.71 6.48 16.15 6.86 16.11 7.46C16.08 7.83 16.11 8.2 16.11 8.61C15.23 8.38 14.41 8.16 13.58 7.94C13.58 8.04 13.56 8.06 13.58 8.08C13.61 8.16 13.65 8.24 13.69 8.31C14.36 9.55 14.88 10.85 15.26 12.21C15.77 14 15.71 15.73 14.7 17.36C14.37 17.89 14.04 18.42 13.73 18.95C13.68 19.03 13.64 19.15 13.66 19.23C13.67 19.28 13.82 19.31 13.91 19.31C14.52 19.31 15.13 19.31 15.75 19.31C15.86 19.31 15.98 19.32 16.1 19.33V21.15L16.07 21.16ZM10.47 17.27C10.95 17.27 11.44 17.22 11.92 17.28C12.59 17.37 12.95 17.1 13.22 16.51C13.57 15.75 13.94 15.01 13.87 14.13C13.77 12.78 13.32 11.54 12.78 10.32C12.66 10.04 12.53 10.19 12.42 10.36C11.02 12.55 9.62 14.73 8.23 16.92C8.18 17 8.17 17.11 8.14 17.21C8.24 17.23 8.34 17.28 8.44 17.28C9.12 17.28 9.79 17.28 10.47 17.28V17.27Z" fill="#B3B3B3"/>
</svg>
